<svg width="35" height="35" viewBox="0 0 35 22" fill="none" xmlns="http://www.w3.org/2000/svg">
<rect x="12.4656" y="5.41113" width="15.0517" height="12.9756" fill="url(#paint0_linear_11_1100)"/>
<path d="M11.9465 2.29688H28.0362L29.0743 5.67053H10.9085L11.9465 2.29688Z" fill="url(#paint1_linear_11_1100)"/>
<rect width="2.0761" height="2.0761" transform="matrix(1 0 0 -1 24.6626 3.07617)" fill="url(#paint2_linear_11_1100)"/>
<rect x="14.0227" y="7.22656" width="2.59512" height="2.59512" rx="0.5" fill="#FFFAF5"/>
<rect x="14.0227" y="12.418" width="2.59512" height="2.59512" rx="0.5" fill="#FFFAF5"/>
<rect x="18.6938" y="7.22656" width="2.59512" height="2.59512" rx="0.5" fill="#FFFAF5"/>
<rect x="18.6938" y="12.418" width="2.59512" height="2.59512" rx="0.5" fill="#FFFAF5"/>
<rect x="23.3652" y="7.22656" width="2.59512" height="2.59512" rx="0.5" fill="#FFFAF5"/>
<rect x="23.3652" y="12.418" width="2.59512" height="2.59512" rx="0.5" fill="#FFFAF5"/>
<g filter="url(#filter0_d_11_1100)">
<path fill-rule="evenodd" clip-rule="evenodd" d="M12.4898 14.5909C14.568 12.4546 19.7641 16.1929 12.4898 20.9998C5.21552 16.1934 10.4116 12.4546 12.4898 14.5909Z" fill="url(#paint3_linear_11_1100)"/>
</g>
<g filter="url(#filter1_d_11_1100)">
<path d="M8.05371 17.9199H9.53249L10.124 16.7369L11.1099 19.0536L12.0464 17.3284L12.7858 17.8706L13.5745 15.8496L14.6096 18.4128L15.004 17.8706H16.8771" stroke="white" stroke-width="0.492928" stroke-linecap="round" stroke-linejoin="round"/>
</g>
<defs>
<filter id="filter0_d_11_1100" x="1.74365" y="8.97559" width="21.4922" height="15.0244" filterUnits="userSpaceOnUse" color-interpolation-filters="sRGB">
<feFlood flood-opacity="0" result="BackgroundImageFix"/>
<feColorMatrix in="SourceAlpha" type="matrix" values="0 0 0 0 0 0 0 0 0 0 0 0 0 0 0 0 0 0 127 0" result="hardAlpha"/>
<feOffset dy="2"/>
<feGaussianBlur stdDeviation="3.5"/>
<feComposite in2="hardAlpha" operator="out"/>
<feColorMatrix type="matrix" values="0 0 0 0 1 0 0 0 0 0.368627 0 0 0 0 0.196078 0 0 0 0.35 0"/>
<feBlend mode="normal" in2="BackgroundImageFix" result="effect1_dropShadow_11_1100"/>
<feBlend mode="normal" in="SourceGraphic" in2="effect1_dropShadow_11_1100" result="shape"/>
</filter>
<filter id="filter1_d_11_1100" x="4.80713" y="13.6035" width="15.3164" height="7.69629" filterUnits="userSpaceOnUse" color-interpolation-filters="sRGB">
<feFlood flood-opacity="0" result="BackgroundImageFix"/>
<feColorMatrix in="SourceAlpha" type="matrix" values="0 0 0 0 0 0 0 0 0 0 0 0 0 0 0 0 0 0 127 0" result="hardAlpha"/>
<feOffset dy="1"/>
<feGaussianBlur stdDeviation="1.5"/>
<feComposite in2="hardAlpha" operator="out"/>
<feColorMatrix type="matrix" values="0 0 0 0 0.754134 0 0 0 0 0.190122 0 0 0 0 0.0369334 0 0 0 1 0"/>
<feBlend mode="normal" in2="BackgroundImageFix" result="effect1_dropShadow_11_1100"/>
<feBlend mode="normal" in="SourceGraphic" in2="effect1_dropShadow_11_1100" result="shape"/>
</filter>
<linearGradient id="paint0_linear_11_1100" x1="19.9914" y1="5.41113" x2="19.9914" y2="18.3867" gradientUnits="userSpaceOnUse">
<stop stop-color="#FFAD97"/>
<stop offset="1" stop-color="#FF5B2E"/>
</linearGradient>
<linearGradient id="paint1_linear_11_1100" x1="19.9914" y1="2.29687" x2="19.9914" y2="5.67053" gradientUnits="userSpaceOnUse">
<stop stop-color="#FFAD97"/>
<stop offset="1" stop-color="#FF5B2E"/>
</linearGradient>
<linearGradient id="paint2_linear_11_1100" x1="2.03805" y1="1" x2="2.03805" y2="3.0761" gradientUnits="userSpaceOnUse">
<stop stop-color="#FFAD97"/>
<stop offset="1" stop-color="#FF5B2E"/>
</linearGradient>
<linearGradient id="paint3_linear_11_1100" x1="12.4898" y1="13.9756" x2="12.4898" y2="20.9998" gradientUnits="userSpaceOnUse">
<stop stop-color="#FF9071"/>
<stop offset="1" stop-color="#FF5B2E"/>
</linearGradient>
</defs>
</svg>
